<svg xmlns="http://www.w3.org/2000/svg" version="1.1" xmlns:xlink="http://www.w3.org/1999/xlink" xmlns:svgjs="http://svgjs.com/svgjs" width="800" height="560" preserveAspectRatio="none" viewBox="0 0 800 560"><g mask="url(&quot;#SvgjsMask1180&quot;)" fill="none"><rect width="800" height="560" x="0" y="0" fill="rgba(223, 199, 173, 0.84)"></rect><path d="M389.52634736256624 63.529647069743845L421.32584627892004 213.13452713794902 570.9307263471252 181.33502822159522 539.1312274307714 31.730148153390047z" fill="rgba(163, 141, 117, 0.8392156862745098)" class="triangle-float3"></path><path d="M350.831,397.602C403.856,397.85,461.173,381.936,485.261,334.697C508.008,290.089,478.074,241.432,452.382,198.453C427.672,157.117,398.97,111.157,350.831,109.813C301.151,108.426,264.258,149.716,238.957,192.493C213.053,236.29,194.193,288.78,218.558,333.451C243.707,379.559,298.311,397.357,350.831,397.602" fill="rgba(163, 141, 117, 0.8392156862745098)" class="triangle-float2"></path><path d="M147.50115699501026 577.7547397321913L214.24639220745112 478.8008591720243 115.2925116472841 412.0556239595834 48.54727643484324 511.0095045197504z" fill="rgba(163, 141, 117, 0.8392156862745098)" class="triangle-float2"></path><path d="M293.13556140236653 122.14956737705451L198.44644072438794 128.7708757117999 205.06774905913335 223.4599963897785 299.7568697371119 216.83868805503312z" fill="rgba(163, 141, 117, 0.8392156862745098)" class="triangle-float3"></path><path d="M398.133,593.718C422.238,593.945,446.681,585.357,459.024,564.651C471.628,543.507,469.176,516.899,456.503,495.796C444.211,475.328,421.999,463.916,398.133,463.256C372.939,462.559,346.662,470.677,333.89,492.405C320.979,514.37,325.55,542.006,339.194,563.524C351.864,583.505,374.475,593.495,398.133,593.718" fill="rgba(163, 141, 117, 0.8392156862745098)" class="triangle-float1"></path><path d="M719.455,429.297C747.821,429.64,778.358,422.452,792.326,397.761C806.145,373.334,795.71,344.065,781.294,319.985C767.372,296.73,746.55,275.35,719.455,276.035C693.177,276.699,676.031,300.265,662.803,322.98C649.456,345.9,637.104,372.625,649.577,396.032C662.579,420.433,691.808,428.962,719.455,429.297" fill="rgba(163, 141, 117, 0.8392156862745098)" class="triangle-float3"></path><path d="M628.4075414472867-30.82697288531949L569.6087328255599 75.24888582134085 675.6845915322202 134.04769444306768 734.4834001539471 27.971835736407353z" fill="rgba(163, 141, 117, 0.8392156862745098)" class="triangle-float3"></path><path d="M59.354,233.798C86.436,232.832,105.452,210.773,119.523,187.614C134.363,163.19,148.628,134.318,135.088,109.15C121.079,83.11,88.92,75.346,59.354,75.772C30.661,76.186,1.797,86.51,-12.691,111.28C-27.302,136.261,-23.409,167.242,-8.74,192.189C5.711,216.765,30.862,234.814,59.354,233.798" fill="rgba(163, 141, 117, 0.8392156862745098)" class="triangle-float1"></path><path d="M728.4771481922558 565.4909549385661L854.4362619454273 543.2809647177553 832.2262717246165 417.32185096458375 706.2671579714449 439.53184118539457z" fill="rgba(163, 141, 117, 0.8392156862745098)" class="triangle-float3"></path></g><defs><mask id="SvgjsMask1180"><rect width="800" height="560" fill="#ffffff"></rect></mask></defs></svg>